G04 (created by PCBNEW-RS274X (2012-jan-04)-stable) date Sun 06 Jan 2013 10:44:23 PM EET*
G01*
G70*
G90*
%MOIN*%
G04 Gerber Fmt 3.4, Leading zero omitted, Abs format*
%FSLAX34Y34*%
G04 APERTURE LIST*
%ADD10C,0.006000*%
%ADD11C,0.060000*%
%ADD12C,0.106300*%
%ADD13C,0.129900*%
%ADD14R,0.016000X0.050000*%
%ADD15R,0.036000X0.036000*%
%ADD16R,0.035000X0.055000*%
%ADD17R,0.055000X0.035000*%
%ADD18C,0.118100*%
%ADD19R,0.047200X0.047200*%
%ADD20R,0.140000X0.165000*%
%ADD21C,0.035000*%
%ADD22C,0.008000*%
%ADD23C,0.010000*%
G04 APERTURE END LIST*
G54D10*
G54D11*
X06799Y-12324D03*
X05799Y-12324D03*
X05799Y-13111D03*
X06799Y-13111D03*
G54D12*
X08661Y-14174D03*
X03937Y-14174D03*
G54D13*
X06299Y-07481D03*
G54D14*
X04800Y-07655D03*
X04550Y-07655D03*
X04290Y-07655D03*
X04030Y-07655D03*
X03780Y-07655D03*
X03520Y-07655D03*
X03260Y-07655D03*
X03010Y-07655D03*
X02750Y-07655D03*
X02500Y-07655D03*
X02240Y-07655D03*
X01980Y-07655D03*
X01730Y-07655D03*
X01470Y-07655D03*
X01470Y-10455D03*
X01730Y-10455D03*
X01970Y-10455D03*
X02240Y-10455D03*
X02500Y-10455D03*
X02750Y-10455D03*
X03010Y-10455D03*
X03260Y-10455D03*
X03520Y-10455D03*
X03780Y-10455D03*
X04030Y-10455D03*
X04290Y-10455D03*
X04550Y-10455D03*
X04800Y-10455D03*
G54D15*
X08811Y-06750D03*
X09511Y-06750D03*
X09161Y-07550D03*
X08811Y-08718D03*
X09511Y-08718D03*
X09161Y-09518D03*
G54D16*
X02775Y-11418D03*
X03525Y-11418D03*
X06675Y-04725D03*
X05925Y-04725D03*
X11111Y-07937D03*
X10361Y-07937D03*
X01987Y-03544D03*
X02737Y-03544D03*
X11111Y-06756D03*
X10361Y-06756D03*
X01987Y-05512D03*
X02737Y-05512D03*
X07068Y-11024D03*
X06318Y-11024D03*
G54D17*
X00591Y-09233D03*
X00591Y-08483D03*
G54D16*
X06318Y-10237D03*
X07068Y-10237D03*
X02775Y-12205D03*
X03525Y-12205D03*
G54D11*
X06099Y-03106D03*
X07099Y-03106D03*
X05099Y-03106D03*
X07599Y-02106D03*
X06599Y-02106D03*
X05599Y-02106D03*
G54D18*
X03699Y-01306D03*
X08999Y-01306D03*
G54D19*
X01181Y-04350D03*
X01181Y-03524D03*
X01181Y-06319D03*
X01181Y-05493D03*
G54D20*
X11024Y-04400D03*
X11024Y-01900D03*
G54D21*
X03270Y-05488D03*
X03920Y-09488D03*
X04770Y-06988D03*
X09170Y-08088D03*
X09670Y-08088D03*
X11870Y-07138D03*
X04670Y-06088D03*
X04020Y-05488D03*
X02120Y-11438D03*
X03620Y-08738D03*
G54D22*
X03010Y-10455D02*
X03010Y-10828D01*
X02065Y-08483D02*
X02370Y-08788D01*
X03260Y-09598D02*
X03020Y-09838D01*
X03020Y-09888D02*
X02370Y-09888D01*
X02370Y-09888D02*
X02240Y-10018D01*
X02240Y-10018D02*
X02240Y-10455D01*
X03020Y-09888D02*
X03010Y-09898D01*
X04030Y-10978D02*
X04030Y-10455D01*
X03525Y-11418D02*
X03590Y-11418D01*
X03590Y-11418D02*
X04030Y-10978D01*
X03525Y-11418D02*
X03525Y-12205D01*
X08811Y-08718D02*
X06740Y-08718D01*
X06020Y-03544D02*
X02737Y-03544D01*
X05721Y-10237D02*
X04540Y-11418D01*
X06318Y-10237D02*
X05721Y-10237D01*
X04540Y-11418D02*
X03525Y-11418D01*
X03010Y-10828D02*
X03120Y-10938D01*
X02370Y-08788D02*
X02370Y-09888D01*
X03120Y-10938D02*
X04030Y-10938D01*
X04030Y-10938D02*
X04030Y-10455D01*
X06720Y-10639D02*
X06318Y-10237D01*
X06020Y-03544D02*
X06064Y-03544D01*
X06318Y-09140D02*
X06318Y-10237D01*
X06740Y-08718D02*
X06318Y-09140D01*
X00720Y-02788D02*
X02620Y-02788D01*
X00591Y-02917D02*
X00720Y-02788D01*
X00591Y-08483D02*
X00591Y-02917D01*
X02737Y-02905D02*
X02737Y-03544D01*
X02620Y-02788D02*
X02737Y-02905D01*
X03010Y-09898D02*
X03010Y-10455D01*
X06099Y-03509D02*
X06099Y-03106D01*
X06064Y-03544D02*
X06099Y-03509D01*
X08811Y-08718D02*
X08811Y-06750D01*
X03260Y-07655D02*
X03260Y-09598D01*
X06034Y-03544D02*
X06020Y-03544D01*
X04030Y-10455D02*
X04290Y-10455D01*
X06743Y-13111D02*
X06370Y-12738D01*
X06370Y-12738D02*
X06370Y-11838D01*
X00591Y-08483D02*
X02065Y-08483D01*
X06370Y-11838D02*
X06720Y-11488D01*
X06799Y-13111D02*
X06743Y-13111D01*
X06720Y-11488D02*
X06720Y-10639D01*
X07068Y-11024D02*
X07068Y-10237D01*
X07068Y-11024D02*
X07068Y-12055D01*
X07068Y-12055D02*
X06799Y-12324D01*
X01970Y-09438D02*
X01970Y-10455D01*
X00591Y-09233D02*
X01765Y-09233D01*
X01765Y-09233D02*
X01970Y-09438D01*
X03920Y-09488D02*
X03520Y-09688D01*
X03520Y-09688D02*
X03520Y-10455D01*
X03246Y-05512D02*
X03270Y-05488D01*
X02737Y-05512D02*
X03246Y-05512D01*
X03797Y-06511D02*
X03797Y-07655D01*
X03797Y-07655D02*
X03780Y-07655D01*
X05583Y-04725D02*
X03797Y-06511D01*
X05925Y-04725D02*
X05583Y-04725D01*
X04800Y-07018D02*
X04770Y-06988D01*
X09170Y-08088D02*
X09511Y-08429D01*
X09511Y-08429D02*
X09511Y-08718D01*
X04800Y-07655D02*
X04800Y-07018D01*
X05799Y-13111D02*
X02343Y-13111D01*
X01470Y-12238D02*
X01470Y-10455D01*
X02343Y-13111D02*
X01470Y-12238D01*
X01730Y-12198D02*
X01730Y-10455D01*
X05799Y-12324D02*
X05646Y-12324D01*
X02482Y-12938D02*
X01730Y-12198D01*
X05020Y-12938D02*
X02482Y-12938D01*
X05646Y-12324D02*
X05020Y-12938D01*
X07599Y-02106D02*
X10818Y-02106D01*
X05670Y-01438D02*
X07499Y-01438D01*
X05599Y-01509D02*
X05670Y-01438D01*
X07499Y-01438D02*
X07599Y-01538D01*
X10818Y-02106D02*
X11024Y-01900D01*
X07599Y-01538D02*
X07599Y-02106D01*
X05599Y-02106D02*
X05599Y-01509D01*
X10340Y-09518D02*
X10720Y-09138D01*
X10361Y-06756D02*
X09517Y-06756D01*
X10720Y-09138D02*
X10720Y-07115D01*
X10720Y-07115D02*
X10361Y-06756D01*
X09517Y-06756D02*
X09511Y-06750D01*
X09161Y-09518D02*
X10340Y-09518D01*
X11111Y-06756D02*
X11111Y-07937D01*
X01200Y-05512D02*
X01181Y-05493D01*
X01987Y-05512D02*
X01200Y-05512D01*
X09161Y-07579D02*
X09161Y-07550D01*
X09670Y-08088D02*
X09161Y-07579D01*
X09974Y-07550D02*
X10361Y-07937D01*
X12020Y-03088D02*
X12270Y-03338D01*
X12270Y-03338D02*
X12270Y-06738D01*
X07483Y-04725D02*
X09120Y-03088D01*
X09120Y-03088D02*
X12020Y-03088D01*
X06675Y-04725D02*
X07483Y-04725D01*
X06675Y-04725D02*
X06675Y-02182D01*
X12270Y-06738D02*
X11870Y-07138D01*
X09161Y-07550D02*
X09974Y-07550D01*
X06675Y-02182D02*
X06599Y-02106D01*
X01987Y-03544D02*
X01201Y-03544D01*
X01201Y-03544D02*
X01181Y-03524D01*
X04030Y-07655D02*
X04030Y-08328D01*
X04720Y-06138D02*
X04720Y-06488D01*
X04670Y-06088D02*
X04720Y-06138D01*
X02120Y-11438D02*
X02140Y-11418D01*
X01181Y-06319D02*
X03189Y-06319D01*
X04030Y-08328D02*
X03620Y-08738D01*
X04030Y-07128D02*
X04670Y-06488D01*
X02140Y-11418D02*
X02775Y-11418D01*
X04030Y-07655D02*
X04030Y-07128D01*
X04670Y-06488D02*
X04030Y-07128D01*
X06318Y-11024D02*
X05534Y-11024D01*
X00808Y-04350D02*
X00752Y-04406D01*
X08558Y-04400D02*
X06470Y-06488D01*
X03308Y-12738D02*
X02775Y-12205D01*
X06470Y-06488D02*
X04720Y-06488D01*
X02775Y-11418D02*
X02775Y-12205D01*
X00752Y-05890D02*
X01181Y-06319D01*
X02775Y-10480D02*
X02750Y-10455D01*
X02775Y-11418D02*
X02775Y-10480D01*
X03189Y-06319D02*
X04020Y-05488D01*
X03820Y-12738D02*
X03308Y-12738D01*
X11024Y-04400D02*
X08558Y-04400D01*
X05534Y-11024D02*
X03820Y-12738D01*
X00752Y-04406D02*
X00752Y-05890D01*
X04720Y-06488D02*
X04670Y-06488D01*
X01181Y-04350D02*
X00808Y-04350D01*
G54D10*
G36*
X06778Y-11775D02*
X06690Y-11775D01*
X06488Y-11859D01*
X06334Y-12013D01*
X06299Y-12097D01*
X06264Y-12013D01*
X06110Y-11859D01*
X05908Y-11775D01*
X05690Y-11775D01*
X05488Y-11859D01*
X05334Y-12013D01*
X05250Y-12215D01*
X05250Y-12306D01*
X04901Y-12648D01*
X04320Y-12648D01*
X05654Y-11314D01*
X05894Y-11314D01*
X05894Y-11348D01*
X05932Y-11440D01*
X06002Y-11510D01*
X06093Y-11548D01*
X06192Y-11548D01*
X06542Y-11548D01*
X06634Y-11510D01*
X06693Y-11451D01*
X06752Y-11510D01*
X06778Y-11520D01*
X06778Y-11775D01*
X06778Y-11775D01*
G37*
G54D23*
X06778Y-11775D02*
X06690Y-11775D01*
X06488Y-11859D01*
X06334Y-12013D01*
X06299Y-12097D01*
X06264Y-12013D01*
X06110Y-11859D01*
X05908Y-11775D01*
X05690Y-11775D01*
X05488Y-11859D01*
X05334Y-12013D01*
X05250Y-12215D01*
X05250Y-12306D01*
X04901Y-12648D01*
X04320Y-12648D01*
X05654Y-11314D01*
X05894Y-11314D01*
X05894Y-11348D01*
X05932Y-11440D01*
X06002Y-11510D01*
X06093Y-11548D01*
X06192Y-11548D01*
X06542Y-11548D01*
X06634Y-11510D01*
X06693Y-11451D01*
X06752Y-11510D01*
X06778Y-11520D01*
X06778Y-11775D01*
G54D10*
G36*
X12272Y-02930D02*
X12225Y-02883D01*
X12131Y-02820D01*
X12020Y-02798D01*
X11963Y-02798D01*
X11973Y-02775D01*
X11973Y-02676D01*
X11973Y-01026D01*
X11935Y-00934D01*
X11865Y-00864D01*
X11774Y-00826D01*
X11675Y-00826D01*
X10275Y-00826D01*
X10183Y-00864D01*
X10113Y-00934D01*
X10075Y-01025D01*
X10075Y-01124D01*
X10075Y-01816D01*
X09677Y-01816D01*
X09710Y-01783D01*
X09839Y-01474D01*
X09839Y-01140D01*
X09712Y-00831D01*
X09476Y-00595D01*
X09167Y-00466D01*
X08833Y-00466D01*
X08524Y-00593D01*
X08288Y-00829D01*
X08159Y-01138D01*
X08159Y-01472D01*
X08286Y-01781D01*
X08321Y-01816D01*
X08072Y-01816D01*
X08064Y-01795D01*
X07910Y-01641D01*
X07889Y-01632D01*
X07889Y-01538D01*
X07867Y-01427D01*
X07804Y-01333D01*
X07704Y-01233D01*
X07610Y-01170D01*
X07499Y-01148D01*
X05670Y-01148D01*
X05559Y-01170D01*
X05465Y-01233D01*
X05394Y-01304D01*
X05331Y-01398D01*
X05309Y-01509D01*
X05309Y-01632D01*
X05288Y-01641D01*
X05134Y-01795D01*
X05050Y-01997D01*
X05050Y-02215D01*
X05134Y-02417D01*
X05288Y-02571D01*
X05490Y-02655D01*
X05708Y-02655D01*
X05910Y-02571D01*
X06064Y-02417D01*
X06099Y-02332D01*
X06134Y-02417D01*
X06288Y-02571D01*
X06385Y-02611D01*
X06385Y-02651D01*
X06380Y-02634D01*
X06178Y-02563D01*
X05965Y-02574D01*
X05818Y-02634D01*
X05791Y-02728D01*
X06064Y-03000D01*
X06099Y-03035D01*
X06170Y-03106D01*
X06099Y-03177D01*
X06028Y-03247D01*
X06028Y-03106D01*
X05721Y-02798D01*
X05627Y-02825D01*
X05603Y-02890D01*
X05564Y-02795D01*
X05410Y-02641D01*
X05208Y-02557D01*
X04990Y-02557D01*
X04788Y-02641D01*
X04634Y-02795D01*
X04550Y-02997D01*
X04550Y-03215D01*
X04634Y-03417D01*
X04788Y-03571D01*
X04990Y-03655D01*
X05208Y-03655D01*
X05410Y-03571D01*
X05564Y-03417D01*
X05601Y-03325D01*
X05627Y-03387D01*
X05721Y-03414D01*
X06028Y-03106D01*
X06028Y-03247D01*
X05791Y-03484D01*
X05818Y-03578D01*
X06020Y-03649D01*
X06233Y-03638D01*
X06380Y-03578D01*
X06385Y-03560D01*
X06385Y-04228D01*
X06359Y-04239D01*
X06300Y-04298D01*
X06241Y-04239D01*
X06150Y-04201D01*
X06051Y-04201D01*
X05701Y-04201D01*
X05609Y-04239D01*
X05539Y-04309D01*
X05501Y-04400D01*
X05501Y-04451D01*
X05472Y-04457D01*
X05440Y-04478D01*
X05377Y-04520D01*
X04539Y-05358D01*
X04539Y-01474D01*
X04539Y-01140D01*
X04412Y-00831D01*
X04176Y-00595D01*
X03867Y-00466D01*
X03533Y-00466D01*
X03224Y-00593D01*
X02988Y-00829D01*
X02859Y-01138D01*
X02859Y-01472D01*
X02986Y-01781D01*
X03222Y-02017D01*
X03531Y-02146D01*
X03865Y-02146D01*
X04174Y-02019D01*
X04410Y-01783D01*
X04539Y-01474D01*
X04539Y-05358D01*
X04445Y-05452D01*
X04445Y-05404D01*
X04381Y-05248D01*
X04261Y-05128D01*
X04105Y-05063D01*
X03936Y-05063D01*
X03780Y-05127D01*
X03660Y-05247D01*
X03645Y-05282D01*
X03631Y-05248D01*
X03511Y-05128D01*
X03355Y-05063D01*
X03186Y-05063D01*
X03162Y-05072D01*
X03162Y-03656D01*
X03162Y-03432D01*
X03161Y-03318D01*
X03161Y-03219D01*
X03123Y-03128D01*
X03053Y-03058D01*
X02961Y-03020D01*
X02849Y-03019D01*
X02787Y-03081D01*
X02787Y-03494D01*
X03100Y-03494D01*
X03162Y-03432D01*
X03162Y-03656D01*
X03100Y-03594D01*
X02787Y-03594D01*
X02787Y-04007D01*
X02849Y-04069D01*
X02961Y-04068D01*
X03053Y-04030D01*
X03123Y-03960D01*
X03161Y-03869D01*
X03161Y-03770D01*
X03162Y-03656D01*
X03162Y-05072D01*
X03117Y-05090D01*
X03053Y-05026D01*
X02962Y-04988D01*
X02863Y-04988D01*
X02513Y-04988D01*
X02421Y-05026D01*
X02362Y-05085D01*
X02303Y-05026D01*
X02212Y-04988D01*
X02113Y-04988D01*
X01763Y-04988D01*
X01671Y-05026D01*
X01604Y-05092D01*
X01558Y-05046D01*
X01467Y-05008D01*
X01368Y-05008D01*
X01042Y-05008D01*
X01042Y-04835D01*
X01466Y-04835D01*
X01558Y-04797D01*
X01628Y-04727D01*
X01666Y-04636D01*
X01666Y-04537D01*
X01666Y-04065D01*
X01637Y-03996D01*
X01671Y-04030D01*
X01762Y-04068D01*
X01861Y-04068D01*
X02211Y-04068D01*
X02303Y-04030D01*
X02362Y-03971D01*
X02421Y-04030D01*
X02513Y-04068D01*
X02625Y-04069D01*
X02687Y-04007D01*
X02687Y-03644D01*
X02687Y-03594D01*
X02687Y-03494D01*
X02687Y-03444D01*
X02687Y-03081D01*
X02625Y-03019D01*
X02513Y-03020D01*
X02421Y-03058D01*
X02362Y-03117D01*
X02303Y-03058D01*
X02212Y-03020D01*
X02113Y-03020D01*
X01763Y-03020D01*
X01671Y-03058D01*
X01605Y-03124D01*
X01558Y-03077D01*
X01467Y-03039D01*
X01368Y-03039D01*
X00896Y-03039D01*
X00804Y-03077D01*
X00734Y-03147D01*
X00696Y-03238D01*
X00696Y-03337D01*
X00696Y-03809D01*
X00734Y-03901D01*
X00770Y-03937D01*
X00734Y-03973D01*
X00696Y-04064D01*
X00696Y-04082D01*
X00603Y-04145D01*
X00547Y-04201D01*
X00484Y-04295D01*
X00462Y-04406D01*
X00462Y-05890D01*
X00484Y-06001D01*
X00547Y-06095D01*
X00696Y-06244D01*
X00696Y-06604D01*
X00734Y-06696D01*
X00804Y-06766D01*
X00895Y-06804D01*
X00994Y-06804D01*
X01466Y-06804D01*
X01558Y-06766D01*
X01628Y-06696D01*
X01664Y-06609D01*
X03189Y-06609D01*
X03300Y-06587D01*
X03394Y-06524D01*
X03551Y-06366D01*
X03529Y-06400D01*
X03507Y-06511D01*
X03507Y-07156D01*
X03391Y-07156D01*
X03390Y-07156D01*
X03389Y-07156D01*
X03362Y-07155D01*
X03339Y-07177D01*
X03299Y-07194D01*
X03265Y-07228D01*
X03231Y-07194D01*
X03172Y-07169D01*
X03158Y-07155D01*
X03131Y-07156D01*
X03041Y-07156D01*
X02881Y-07156D01*
X02880Y-07156D01*
X02781Y-07156D01*
X02630Y-07156D01*
X02621Y-07156D01*
X02531Y-07156D01*
X02371Y-07156D01*
X02370Y-07156D01*
X02271Y-07156D01*
X02111Y-07156D01*
X02110Y-07156D01*
X02011Y-07156D01*
X01860Y-07156D01*
X01851Y-07156D01*
X01761Y-07156D01*
X01601Y-07156D01*
X01600Y-07156D01*
X01501Y-07156D01*
X01341Y-07156D01*
X01249Y-07194D01*
X01179Y-07264D01*
X01141Y-07355D01*
X01141Y-07454D01*
X01141Y-07954D01*
X01179Y-08046D01*
X01249Y-08116D01*
X01340Y-08154D01*
X01439Y-08154D01*
X01599Y-08154D01*
X01599Y-08153D01*
X01600Y-08154D01*
X01699Y-08154D01*
X01850Y-08154D01*
X01859Y-08154D01*
X01949Y-08154D01*
X02109Y-08154D01*
X02109Y-08153D01*
X02110Y-08154D01*
X02209Y-08154D01*
X02369Y-08154D01*
X02369Y-08153D01*
X02370Y-08154D01*
X02469Y-08154D01*
X02620Y-08154D01*
X02629Y-08154D01*
X02719Y-08154D01*
X02879Y-08154D01*
X02879Y-08153D01*
X02880Y-08154D01*
X02979Y-08154D01*
X03131Y-08154D01*
X03139Y-08154D01*
X03158Y-08155D01*
X03173Y-08139D01*
X03231Y-08116D01*
X03265Y-08082D01*
X03299Y-08116D01*
X03340Y-08133D01*
X03362Y-08155D01*
X03389Y-08154D01*
X03389Y-08153D01*
X03390Y-08154D01*
X03489Y-08154D01*
X03649Y-08154D01*
X03649Y-08153D01*
X03650Y-08154D01*
X03740Y-08154D01*
X03740Y-08208D01*
X03635Y-08313D01*
X03536Y-08313D01*
X03380Y-08377D01*
X03260Y-08497D01*
X03195Y-08653D01*
X03195Y-08822D01*
X03259Y-08978D01*
X03379Y-09098D01*
X03535Y-09163D01*
X03644Y-09163D01*
X03560Y-09247D01*
X03508Y-09369D01*
X03390Y-09429D01*
X03354Y-09456D01*
X03315Y-09483D01*
X03309Y-09491D01*
X03301Y-09498D01*
X03278Y-09537D01*
X03252Y-09577D01*
X03249Y-09587D01*
X03245Y-09596D01*
X03239Y-09639D01*
X03230Y-09688D01*
X03230Y-09956D01*
X03139Y-09956D01*
X03112Y-09955D01*
X03096Y-09970D01*
X03039Y-09994D01*
X03005Y-10028D01*
X02971Y-09994D01*
X02929Y-09976D01*
X02908Y-09955D01*
X02881Y-09956D01*
X02880Y-09956D01*
X02781Y-09956D01*
X02630Y-09956D01*
X02621Y-09956D01*
X02531Y-09956D01*
X02371Y-09956D01*
X02370Y-09956D01*
X02369Y-09956D01*
X02342Y-09955D01*
X02340Y-09955D01*
X02260Y-09955D01*
X02260Y-09438D01*
X02259Y-09437D01*
X02238Y-09327D01*
X02237Y-09326D01*
X02175Y-09233D01*
X02174Y-09232D01*
X01970Y-09028D01*
X01876Y-08965D01*
X01765Y-08943D01*
X01087Y-08943D01*
X01077Y-08917D01*
X01018Y-08858D01*
X01077Y-08799D01*
X01115Y-08707D01*
X01116Y-08595D01*
X01116Y-08371D01*
X01115Y-08259D01*
X01077Y-08167D01*
X01007Y-08097D01*
X00916Y-08059D01*
X00817Y-08059D01*
X00703Y-08058D01*
X00641Y-08120D01*
X00641Y-08433D01*
X01054Y-08433D01*
X01116Y-08371D01*
X01116Y-08595D01*
X01054Y-08533D01*
X00691Y-08533D01*
X00641Y-08533D01*
X00541Y-08533D01*
X00541Y-08433D01*
X00541Y-08383D01*
X00541Y-08120D01*
X00479Y-08058D01*
X00365Y-08059D01*
X00324Y-08059D01*
X00324Y-00324D01*
X12272Y-00324D01*
X12272Y-02930D01*
X12272Y-02930D01*
G37*
G54D23*
X12272Y-02930D02*
X12225Y-02883D01*
X12131Y-02820D01*
X12020Y-02798D01*
X11963Y-02798D01*
X11973Y-02775D01*
X11973Y-02676D01*
X11973Y-01026D01*
X11935Y-00934D01*
X11865Y-00864D01*
X11774Y-00826D01*
X11675Y-00826D01*
X10275Y-00826D01*
X10183Y-00864D01*
X10113Y-00934D01*
X10075Y-01025D01*
X10075Y-01124D01*
X10075Y-01816D01*
X09677Y-01816D01*
X09710Y-01783D01*
X09839Y-01474D01*
X09839Y-01140D01*
X09712Y-00831D01*
X09476Y-00595D01*
X09167Y-00466D01*
X08833Y-00466D01*
X08524Y-00593D01*
X08288Y-00829D01*
X08159Y-01138D01*
X08159Y-01472D01*
X08286Y-01781D01*
X08321Y-01816D01*
X08072Y-01816D01*
X08064Y-01795D01*
X07910Y-01641D01*
X07889Y-01632D01*
X07889Y-01538D01*
X07867Y-01427D01*
X07804Y-01333D01*
X07704Y-01233D01*
X07610Y-01170D01*
X07499Y-01148D01*
X05670Y-01148D01*
X05559Y-01170D01*
X05465Y-01233D01*
X05394Y-01304D01*
X05331Y-01398D01*
X05309Y-01509D01*
X05309Y-01632D01*
X05288Y-01641D01*
X05134Y-01795D01*
X05050Y-01997D01*
X05050Y-02215D01*
X05134Y-02417D01*
X05288Y-02571D01*
X05490Y-02655D01*
X05708Y-02655D01*
X05910Y-02571D01*
X06064Y-02417D01*
X06099Y-02332D01*
X06134Y-02417D01*
X06288Y-02571D01*
X06385Y-02611D01*
X06385Y-02651D01*
X06380Y-02634D01*
X06178Y-02563D01*
X05965Y-02574D01*
X05818Y-02634D01*
X05791Y-02728D01*
X06064Y-03000D01*
X06099Y-03035D01*
X06170Y-03106D01*
X06099Y-03177D01*
X06028Y-03247D01*
X06028Y-03106D01*
X05721Y-02798D01*
X05627Y-02825D01*
X05603Y-02890D01*
X05564Y-02795D01*
X05410Y-02641D01*
X05208Y-02557D01*
X04990Y-02557D01*
X04788Y-02641D01*
X04634Y-02795D01*
X04550Y-02997D01*
X04550Y-03215D01*
X04634Y-03417D01*
X04788Y-03571D01*
X04990Y-03655D01*
X05208Y-03655D01*
X05410Y-03571D01*
X05564Y-03417D01*
X05601Y-03325D01*
X05627Y-03387D01*
X05721Y-03414D01*
X06028Y-03106D01*
X06028Y-03247D01*
X05791Y-03484D01*
X05818Y-03578D01*
X06020Y-03649D01*
X06233Y-03638D01*
X06380Y-03578D01*
X06385Y-03560D01*
X06385Y-04228D01*
X06359Y-04239D01*
X06300Y-04298D01*
X06241Y-04239D01*
X06150Y-04201D01*
X06051Y-04201D01*
X05701Y-04201D01*
X05609Y-04239D01*
X05539Y-04309D01*
X05501Y-04400D01*
X05501Y-04451D01*
X05472Y-04457D01*
X05440Y-04478D01*
X05377Y-04520D01*
X04539Y-05358D01*
X04539Y-01474D01*
X04539Y-01140D01*
X04412Y-00831D01*
X04176Y-00595D01*
X03867Y-00466D01*
X03533Y-00466D01*
X03224Y-00593D01*
X02988Y-00829D01*
X02859Y-01138D01*
X02859Y-01472D01*
X02986Y-01781D01*
X03222Y-02017D01*
X03531Y-02146D01*
X03865Y-02146D01*
X04174Y-02019D01*
X04410Y-01783D01*
X04539Y-01474D01*
X04539Y-05358D01*
X04445Y-05452D01*
X04445Y-05404D01*
X04381Y-05248D01*
X04261Y-05128D01*
X04105Y-05063D01*
X03936Y-05063D01*
X03780Y-05127D01*
X03660Y-05247D01*
X03645Y-05282D01*
X03631Y-05248D01*
X03511Y-05128D01*
X03355Y-05063D01*
X03186Y-05063D01*
X03162Y-05072D01*
X03162Y-03656D01*
X03162Y-03432D01*
X03161Y-03318D01*
X03161Y-03219D01*
X03123Y-03128D01*
X03053Y-03058D01*
X02961Y-03020D01*
X02849Y-03019D01*
X02787Y-03081D01*
X02787Y-03494D01*
X03100Y-03494D01*
X03162Y-03432D01*
X03162Y-03656D01*
X03100Y-03594D01*
X02787Y-03594D01*
X02787Y-04007D01*
X02849Y-04069D01*
X02961Y-04068D01*
X03053Y-04030D01*
X03123Y-03960D01*
X03161Y-03869D01*
X03161Y-03770D01*
X03162Y-03656D01*
X03162Y-05072D01*
X03117Y-05090D01*
X03053Y-05026D01*
X02962Y-04988D01*
X02863Y-04988D01*
X02513Y-04988D01*
X02421Y-05026D01*
X02362Y-05085D01*
X02303Y-05026D01*
X02212Y-04988D01*
X02113Y-04988D01*
X01763Y-04988D01*
X01671Y-05026D01*
X01604Y-05092D01*
X01558Y-05046D01*
X01467Y-05008D01*
X01368Y-05008D01*
X01042Y-05008D01*
X01042Y-04835D01*
X01466Y-04835D01*
X01558Y-04797D01*
X01628Y-04727D01*
X01666Y-04636D01*
X01666Y-04537D01*
X01666Y-04065D01*
X01637Y-03996D01*
X01671Y-04030D01*
X01762Y-04068D01*
X01861Y-04068D01*
X02211Y-04068D01*
X02303Y-04030D01*
X02362Y-03971D01*
X02421Y-04030D01*
X02513Y-04068D01*
X02625Y-04069D01*
X02687Y-04007D01*
X02687Y-03644D01*
X02687Y-03594D01*
X02687Y-03494D01*
X02687Y-03444D01*
X02687Y-03081D01*
X02625Y-03019D01*
X02513Y-03020D01*
X02421Y-03058D01*
X02362Y-03117D01*
X02303Y-03058D01*
X02212Y-03020D01*
X02113Y-03020D01*
X01763Y-03020D01*
X01671Y-03058D01*
X01605Y-03124D01*
X01558Y-03077D01*
X01467Y-03039D01*
X01368Y-03039D01*
X00896Y-03039D01*
X00804Y-03077D01*
X00734Y-03147D01*
X00696Y-03238D01*
X00696Y-03337D01*
X00696Y-03809D01*
X00734Y-03901D01*
X00770Y-03937D01*
X00734Y-03973D01*
X00696Y-04064D01*
X00696Y-04082D01*
X00603Y-04145D01*
X00547Y-04201D01*
X00484Y-04295D01*
X00462Y-04406D01*
X00462Y-05890D01*
X00484Y-06001D01*
X00547Y-06095D01*
X00696Y-06244D01*
X00696Y-06604D01*
X00734Y-06696D01*
X00804Y-06766D01*
X00895Y-06804D01*
X00994Y-06804D01*
X01466Y-06804D01*
X01558Y-06766D01*
X01628Y-06696D01*
X01664Y-06609D01*
X03189Y-06609D01*
X03300Y-06587D01*
X03394Y-06524D01*
X03551Y-06366D01*
X03529Y-06400D01*
X03507Y-06511D01*
X03507Y-07156D01*
X03391Y-07156D01*
X03390Y-07156D01*
X03389Y-07156D01*
X03362Y-07155D01*
X03339Y-07177D01*
X03299Y-07194D01*
X03265Y-07228D01*
X03231Y-07194D01*
X03172Y-07169D01*
X03158Y-07155D01*
X03131Y-07156D01*
X03041Y-07156D01*
X02881Y-07156D01*
X02880Y-07156D01*
X02781Y-07156D01*
X02630Y-07156D01*
X02621Y-07156D01*
X02531Y-07156D01*
X02371Y-07156D01*
X02370Y-07156D01*
X02271Y-07156D01*
X02111Y-07156D01*
X02110Y-07156D01*
X02011Y-07156D01*
X01860Y-07156D01*
X01851Y-07156D01*
X01761Y-07156D01*
X01601Y-07156D01*
X01600Y-07156D01*
X01501Y-07156D01*
X01341Y-07156D01*
X01249Y-07194D01*
X01179Y-07264D01*
X01141Y-07355D01*
X01141Y-07454D01*
X01141Y-07954D01*
X01179Y-08046D01*
X01249Y-08116D01*
X01340Y-08154D01*
X01439Y-08154D01*
X01599Y-08154D01*
X01599Y-08153D01*
X01600Y-08154D01*
X01699Y-08154D01*
X01850Y-08154D01*
X01859Y-08154D01*
X01949Y-08154D01*
X02109Y-08154D01*
X02109Y-08153D01*
X02110Y-08154D01*
X02209Y-08154D01*
X02369Y-08154D01*
X02369Y-08153D01*
X02370Y-08154D01*
X02469Y-08154D01*
X02620Y-08154D01*
X02629Y-08154D01*
X02719Y-08154D01*
X02879Y-08154D01*
X02879Y-08153D01*
X02880Y-08154D01*
X02979Y-08154D01*
X03131Y-08154D01*
X03139Y-08154D01*
X03158Y-08155D01*
X03173Y-08139D01*
X03231Y-08116D01*
X03265Y-08082D01*
X03299Y-08116D01*
X03340Y-08133D01*
X03362Y-08155D01*
X03389Y-08154D01*
X03389Y-08153D01*
X03390Y-08154D01*
X03489Y-08154D01*
X03649Y-08154D01*
X03649Y-08153D01*
X03650Y-08154D01*
X03740Y-08154D01*
X03740Y-08208D01*
X03635Y-08313D01*
X03536Y-08313D01*
X03380Y-08377D01*
X03260Y-08497D01*
X03195Y-08653D01*
X03195Y-08822D01*
X03259Y-08978D01*
X03379Y-09098D01*
X03535Y-09163D01*
X03644Y-09163D01*
X03560Y-09247D01*
X03508Y-09369D01*
X03390Y-09429D01*
X03354Y-09456D01*
X03315Y-09483D01*
X03309Y-09491D01*
X03301Y-09498D01*
X03278Y-09537D01*
X03252Y-09577D01*
X03249Y-09587D01*
X03245Y-09596D01*
X03239Y-09639D01*
X03230Y-09688D01*
X03230Y-09956D01*
X03139Y-09956D01*
X03112Y-09955D01*
X03096Y-09970D01*
X03039Y-09994D01*
X03005Y-10028D01*
X02971Y-09994D01*
X02929Y-09976D01*
X02908Y-09955D01*
X02881Y-09956D01*
X02880Y-09956D01*
X02781Y-09956D01*
X02630Y-09956D01*
X02621Y-09956D01*
X02531Y-09956D01*
X02371Y-09956D01*
X02370Y-09956D01*
X02369Y-09956D01*
X02342Y-09955D01*
X02340Y-09955D01*
X02260Y-09955D01*
X02260Y-09438D01*
X02259Y-09437D01*
X02238Y-09327D01*
X02237Y-09326D01*
X02175Y-09233D01*
X02174Y-09232D01*
X01970Y-09028D01*
X01876Y-08965D01*
X01765Y-08943D01*
X01087Y-08943D01*
X01077Y-08917D01*
X01018Y-08858D01*
X01077Y-08799D01*
X01115Y-08707D01*
X01116Y-08595D01*
X01116Y-08371D01*
X01115Y-08259D01*
X01077Y-08167D01*
X01007Y-08097D01*
X00916Y-08059D01*
X00817Y-08059D01*
X00703Y-08058D01*
X00641Y-08120D01*
X00641Y-08433D01*
X01054Y-08433D01*
X01116Y-08371D01*
X01116Y-08595D01*
X01054Y-08533D01*
X00691Y-08533D01*
X00641Y-08533D01*
X00541Y-08533D01*
X00541Y-08433D01*
X00541Y-08383D01*
X00541Y-08120D01*
X00479Y-08058D01*
X00365Y-08059D01*
X00324Y-08059D01*
X00324Y-00324D01*
X12272Y-00324D01*
X12272Y-02930D01*
G54D10*
G36*
X12272Y-14635D02*
X09304Y-14635D01*
X09323Y-14617D01*
X09442Y-14330D01*
X09442Y-14019D01*
X09323Y-13732D01*
X09104Y-13512D01*
X08817Y-13393D01*
X08506Y-13393D01*
X08219Y-13512D01*
X07999Y-13731D01*
X07880Y-14018D01*
X07880Y-14329D01*
X07999Y-14616D01*
X08017Y-14635D01*
X07342Y-14635D01*
X07342Y-13190D01*
X07331Y-12977D01*
X07271Y-12830D01*
X07177Y-12803D01*
X06870Y-13111D01*
X07177Y-13419D01*
X07271Y-13392D01*
X07342Y-13190D01*
X07342Y-14635D01*
X07107Y-14635D01*
X07107Y-13489D01*
X06799Y-13182D01*
X06491Y-13489D01*
X06518Y-13583D01*
X06720Y-13654D01*
X06933Y-13643D01*
X07080Y-13583D01*
X07107Y-13489D01*
X07107Y-14635D01*
X04580Y-14635D01*
X04599Y-14617D01*
X04718Y-14330D01*
X04718Y-14019D01*
X04599Y-13732D01*
X04380Y-13512D01*
X04112Y-13401D01*
X05325Y-13401D01*
X05334Y-13422D01*
X05488Y-13576D01*
X05690Y-13660D01*
X05908Y-13660D01*
X06110Y-13576D01*
X06264Y-13422D01*
X06301Y-13330D01*
X06327Y-13392D01*
X06421Y-13419D01*
X06728Y-13111D01*
X06421Y-12803D01*
X06327Y-12830D01*
X06303Y-12895D01*
X06264Y-12800D01*
X06181Y-12717D01*
X06264Y-12635D01*
X06299Y-12550D01*
X06334Y-12635D01*
X06488Y-12789D01*
X06589Y-12831D01*
X06799Y-13040D01*
X07008Y-12831D01*
X07110Y-12789D01*
X07264Y-12635D01*
X07348Y-12433D01*
X07348Y-12215D01*
X07330Y-12173D01*
X07336Y-12166D01*
X07358Y-12055D01*
X07358Y-11520D01*
X07384Y-11510D01*
X07454Y-11440D01*
X07492Y-11349D01*
X07492Y-11250D01*
X07492Y-10700D01*
X07463Y-10630D01*
X07492Y-10562D01*
X07492Y-10463D01*
X07492Y-09913D01*
X07454Y-09821D01*
X07384Y-09751D01*
X07293Y-09713D01*
X07194Y-09713D01*
X06844Y-09713D01*
X06752Y-09751D01*
X06693Y-09810D01*
X06634Y-09751D01*
X06542Y-09713D01*
X06430Y-09712D01*
X06368Y-09774D01*
X06368Y-10137D01*
X06368Y-10187D01*
X06368Y-10287D01*
X06268Y-10287D01*
X06268Y-10187D01*
X06268Y-09774D01*
X06206Y-09712D01*
X06094Y-09713D01*
X06002Y-09751D01*
X05932Y-09821D01*
X05894Y-09912D01*
X05894Y-10011D01*
X05893Y-10125D01*
X05955Y-10187D01*
X06268Y-10187D01*
X06268Y-10287D01*
X06218Y-10287D01*
X05955Y-10287D01*
X05893Y-10349D01*
X05894Y-10463D01*
X05894Y-10562D01*
X05922Y-10630D01*
X05894Y-10699D01*
X05894Y-10734D01*
X05534Y-10734D01*
X05423Y-10756D01*
X05329Y-10819D01*
X05328Y-10819D01*
X05328Y-10820D01*
X03950Y-12197D01*
X03950Y-12105D01*
X03938Y-12105D01*
X03950Y-12093D01*
X03949Y-11979D01*
X03949Y-11880D01*
X03920Y-11811D01*
X03949Y-11743D01*
X03949Y-11644D01*
X03950Y-11530D01*
X03888Y-11468D01*
X03575Y-11468D01*
X03575Y-11742D01*
X03575Y-11881D01*
X03575Y-12105D01*
X03575Y-12155D01*
X03575Y-12255D01*
X03475Y-12255D01*
X03475Y-12155D01*
X03475Y-12105D01*
X03475Y-11881D01*
X03475Y-11742D01*
X03475Y-11518D01*
X03475Y-11468D01*
X03475Y-11368D01*
X03575Y-11368D01*
X03625Y-11368D01*
X03888Y-11368D01*
X03950Y-11306D01*
X03949Y-11192D01*
X03949Y-11093D01*
X03911Y-11002D01*
X03863Y-10954D01*
X03901Y-10954D01*
X03909Y-10954D01*
X03928Y-10955D01*
X03943Y-10939D01*
X04001Y-10916D01*
X04035Y-10882D01*
X04069Y-10916D01*
X04109Y-10932D01*
X04132Y-10955D01*
X04159Y-10954D01*
X04160Y-10953D01*
X04161Y-10954D01*
X04188Y-10955D01*
X04210Y-10932D01*
X04251Y-10916D01*
X04290Y-10877D01*
X04329Y-10916D01*
X04370Y-10933D01*
X04392Y-10955D01*
X04419Y-10954D01*
X04419Y-10953D01*
X04420Y-10954D01*
X04519Y-10954D01*
X04670Y-10954D01*
X04679Y-10954D01*
X04769Y-10954D01*
X04929Y-10954D01*
X05021Y-10916D01*
X05091Y-10846D01*
X05129Y-10755D01*
X05129Y-10656D01*
X05129Y-10156D01*
X05091Y-10064D01*
X05021Y-09994D01*
X04930Y-09956D01*
X04831Y-09956D01*
X04680Y-09956D01*
X04671Y-09956D01*
X04581Y-09956D01*
X04421Y-09956D01*
X04420Y-09956D01*
X04419Y-09956D01*
X04392Y-09955D01*
X04369Y-09977D01*
X04329Y-09994D01*
X04290Y-10033D01*
X04251Y-09994D01*
X04210Y-09977D01*
X04188Y-09955D01*
X04161Y-09956D01*
X04160Y-09956D01*
X04159Y-09956D01*
X04132Y-09955D01*
X04109Y-09977D01*
X04069Y-09994D01*
X04035Y-10028D01*
X04001Y-09994D01*
X03942Y-09969D01*
X03928Y-09955D01*
X03901Y-09956D01*
X03811Y-09956D01*
X03810Y-09956D01*
X03810Y-09902D01*
X03835Y-09913D01*
X04004Y-09913D01*
X04160Y-09849D01*
X04280Y-09729D01*
X04345Y-09573D01*
X04345Y-09404D01*
X04281Y-09248D01*
X04161Y-09128D01*
X04005Y-09063D01*
X03896Y-09063D01*
X03980Y-08979D01*
X04045Y-08823D01*
X04045Y-08723D01*
X04234Y-08534D01*
X04234Y-08533D01*
X04235Y-08533D01*
X04297Y-08440D01*
X04298Y-08439D01*
X04319Y-08329D01*
X04320Y-08328D01*
X04320Y-08154D01*
X04419Y-08154D01*
X04419Y-08153D01*
X04420Y-08154D01*
X04519Y-08154D01*
X04670Y-08154D01*
X04679Y-08154D01*
X04769Y-08154D01*
X04929Y-08154D01*
X05021Y-08116D01*
X05091Y-08046D01*
X05129Y-07955D01*
X05129Y-07856D01*
X05129Y-07356D01*
X05092Y-07266D01*
X05130Y-07229D01*
X05195Y-07073D01*
X05195Y-06904D01*
X05143Y-06778D01*
X05731Y-06778D01*
X05537Y-06971D01*
X05400Y-07301D01*
X05400Y-07659D01*
X05537Y-07989D01*
X05789Y-08243D01*
X06119Y-08380D01*
X06477Y-08380D01*
X06807Y-08243D01*
X07061Y-07991D01*
X07198Y-07661D01*
X07198Y-07303D01*
X07061Y-06973D01*
X06809Y-06719D01*
X06695Y-06672D01*
X08678Y-04690D01*
X10075Y-04690D01*
X10075Y-05274D01*
X10113Y-05366D01*
X10183Y-05436D01*
X10274Y-05474D01*
X10373Y-05474D01*
X11773Y-05474D01*
X11865Y-05436D01*
X11935Y-05366D01*
X11973Y-05275D01*
X11973Y-05176D01*
X11973Y-03526D01*
X11935Y-03434D01*
X11879Y-03378D01*
X11900Y-03378D01*
X11980Y-03458D01*
X11980Y-06617D01*
X11884Y-06713D01*
X11786Y-06713D01*
X11630Y-06777D01*
X11535Y-06872D01*
X11535Y-06432D01*
X11497Y-06340D01*
X11427Y-06270D01*
X11336Y-06232D01*
X11237Y-06232D01*
X10887Y-06232D01*
X10795Y-06270D01*
X10736Y-06329D01*
X10677Y-06270D01*
X10586Y-06232D01*
X10487Y-06232D01*
X10137Y-06232D01*
X10045Y-06270D01*
X09975Y-06340D01*
X09937Y-06431D01*
X09937Y-06466D01*
X09917Y-06466D01*
X09902Y-06429D01*
X09832Y-06359D01*
X09741Y-06321D01*
X09642Y-06321D01*
X09282Y-06321D01*
X09190Y-06359D01*
X09161Y-06388D01*
X09132Y-06359D01*
X09040Y-06321D01*
X08923Y-06320D01*
X08861Y-06382D01*
X08861Y-06650D01*
X08861Y-06700D01*
X08861Y-06800D01*
X08861Y-06850D01*
X08861Y-07118D01*
X08883Y-07140D01*
X08840Y-07159D01*
X08770Y-07229D01*
X08761Y-07250D01*
X08761Y-07118D01*
X08761Y-06800D01*
X08761Y-06700D01*
X08761Y-06382D01*
X08699Y-06320D01*
X08582Y-06321D01*
X08490Y-06359D01*
X08420Y-06429D01*
X08382Y-06520D01*
X08382Y-06619D01*
X08381Y-06638D01*
X08443Y-06700D01*
X08761Y-06700D01*
X08761Y-06800D01*
X08443Y-06800D01*
X08381Y-06862D01*
X08382Y-06881D01*
X08382Y-06980D01*
X08420Y-07071D01*
X08490Y-07141D01*
X08582Y-07179D01*
X08699Y-07180D01*
X08761Y-07118D01*
X08761Y-07250D01*
X08732Y-07320D01*
X08732Y-07419D01*
X08732Y-07779D01*
X08770Y-07871D01*
X08791Y-07892D01*
X08745Y-08003D01*
X08745Y-08172D01*
X08792Y-08288D01*
X08711Y-08288D01*
X08711Y-08300D01*
X08699Y-08288D01*
X08582Y-08289D01*
X08490Y-08327D01*
X08420Y-08397D01*
X08382Y-08488D01*
X08382Y-08587D01*
X08381Y-08606D01*
X08443Y-08668D01*
X08711Y-08668D01*
X08761Y-08668D01*
X08861Y-08668D01*
X08861Y-08768D01*
X08861Y-08818D01*
X08861Y-09086D01*
X08883Y-09108D01*
X08840Y-09127D01*
X08770Y-09197D01*
X08761Y-09218D01*
X08761Y-09086D01*
X08761Y-08768D01*
X08443Y-08768D01*
X08381Y-08830D01*
X08382Y-08849D01*
X08382Y-08948D01*
X08420Y-09039D01*
X08490Y-09109D01*
X08582Y-09147D01*
X08699Y-09148D01*
X08761Y-09086D01*
X08761Y-09218D01*
X08732Y-09288D01*
X08732Y-09387D01*
X08732Y-09747D01*
X08770Y-09839D01*
X08840Y-09909D01*
X08931Y-09947D01*
X09030Y-09947D01*
X09390Y-09947D01*
X09482Y-09909D01*
X09552Y-09839D01*
X09564Y-09808D01*
X10340Y-09808D01*
X10451Y-09786D01*
X10545Y-09723D01*
X10925Y-09343D01*
X10988Y-09249D01*
X11010Y-09138D01*
X11010Y-08461D01*
X11335Y-08461D01*
X11427Y-08423D01*
X11497Y-08353D01*
X11535Y-08262D01*
X11535Y-08163D01*
X11535Y-07613D01*
X11497Y-07521D01*
X11427Y-07451D01*
X11401Y-07440D01*
X11401Y-07252D01*
X11427Y-07242D01*
X11445Y-07223D01*
X11509Y-07378D01*
X11629Y-07498D01*
X11785Y-07563D01*
X11954Y-07563D01*
X12110Y-07499D01*
X12230Y-07379D01*
X12272Y-07278D01*
X12272Y-14635D01*
X12272Y-14635D01*
G37*
G54D23*
X12272Y-14635D02*
X09304Y-14635D01*
X09323Y-14617D01*
X09442Y-14330D01*
X09442Y-14019D01*
X09323Y-13732D01*
X09104Y-13512D01*
X08817Y-13393D01*
X08506Y-13393D01*
X08219Y-13512D01*
X07999Y-13731D01*
X07880Y-14018D01*
X07880Y-14329D01*
X07999Y-14616D01*
X08017Y-14635D01*
X07342Y-14635D01*
X07342Y-13190D01*
X07331Y-12977D01*
X07271Y-12830D01*
X07177Y-12803D01*
X06870Y-13111D01*
X07177Y-13419D01*
X07271Y-13392D01*
X07342Y-13190D01*
X07342Y-14635D01*
X07107Y-14635D01*
X07107Y-13489D01*
X06799Y-13182D01*
X06491Y-13489D01*
X06518Y-13583D01*
X06720Y-13654D01*
X06933Y-13643D01*
X07080Y-13583D01*
X07107Y-13489D01*
X07107Y-14635D01*
X04580Y-14635D01*
X04599Y-14617D01*
X04718Y-14330D01*
X04718Y-14019D01*
X04599Y-13732D01*
X04380Y-13512D01*
X04112Y-13401D01*
X05325Y-13401D01*
X05334Y-13422D01*
X05488Y-13576D01*
X05690Y-13660D01*
X05908Y-13660D01*
X06110Y-13576D01*
X06264Y-13422D01*
X06301Y-13330D01*
X06327Y-13392D01*
X06421Y-13419D01*
X06728Y-13111D01*
X06421Y-12803D01*
X06327Y-12830D01*
X06303Y-12895D01*
X06264Y-12800D01*
X06181Y-12717D01*
X06264Y-12635D01*
X06299Y-12550D01*
X06334Y-12635D01*
X06488Y-12789D01*
X06589Y-12831D01*
X06799Y-13040D01*
X07008Y-12831D01*
X07110Y-12789D01*
X07264Y-12635D01*
X07348Y-12433D01*
X07348Y-12215D01*
X07330Y-12173D01*
X07336Y-12166D01*
X07358Y-12055D01*
X07358Y-11520D01*
X07384Y-11510D01*
X07454Y-11440D01*
X07492Y-11349D01*
X07492Y-11250D01*
X07492Y-10700D01*
X07463Y-10630D01*
X07492Y-10562D01*
X07492Y-10463D01*
X07492Y-09913D01*
X07454Y-09821D01*
X07384Y-09751D01*
X07293Y-09713D01*
X07194Y-09713D01*
X06844Y-09713D01*
X06752Y-09751D01*
X06693Y-09810D01*
X06634Y-09751D01*
X06542Y-09713D01*
X06430Y-09712D01*
X06368Y-09774D01*
X06368Y-10137D01*
X06368Y-10187D01*
X06368Y-10287D01*
X06268Y-10287D01*
X06268Y-10187D01*
X06268Y-09774D01*
X06206Y-09712D01*
X06094Y-09713D01*
X06002Y-09751D01*
X05932Y-09821D01*
X05894Y-09912D01*
X05894Y-10011D01*
X05893Y-10125D01*
X05955Y-10187D01*
X06268Y-10187D01*
X06268Y-10287D01*
X06218Y-10287D01*
X05955Y-10287D01*
X05893Y-10349D01*
X05894Y-10463D01*
X05894Y-10562D01*
X05922Y-10630D01*
X05894Y-10699D01*
X05894Y-10734D01*
X05534Y-10734D01*
X05423Y-10756D01*
X05329Y-10819D01*
X05328Y-10819D01*
X05328Y-10820D01*
X03950Y-12197D01*
X03950Y-12105D01*
X03938Y-12105D01*
X03950Y-12093D01*
X03949Y-11979D01*
X03949Y-11880D01*
X03920Y-11811D01*
X03949Y-11743D01*
X03949Y-11644D01*
X03950Y-11530D01*
X03888Y-11468D01*
X03575Y-11468D01*
X03575Y-11742D01*
X03575Y-11881D01*
X03575Y-12105D01*
X03575Y-12155D01*
X03575Y-12255D01*
X03475Y-12255D01*
X03475Y-12155D01*
X03475Y-12105D01*
X03475Y-11881D01*
X03475Y-11742D01*
X03475Y-11518D01*
X03475Y-11468D01*
X03475Y-11368D01*
X03575Y-11368D01*
X03625Y-11368D01*
X03888Y-11368D01*
X03950Y-11306D01*
X03949Y-11192D01*
X03949Y-11093D01*
X03911Y-11002D01*
X03863Y-10954D01*
X03901Y-10954D01*
X03909Y-10954D01*
X03928Y-10955D01*
X03943Y-10939D01*
X04001Y-10916D01*
X04035Y-10882D01*
X04069Y-10916D01*
X04109Y-10932D01*
X04132Y-10955D01*
X04159Y-10954D01*
X04160Y-10953D01*
X04161Y-10954D01*
X04188Y-10955D01*
X04210Y-10932D01*
X04251Y-10916D01*
X04290Y-10877D01*
X04329Y-10916D01*
X04370Y-10933D01*
X04392Y-10955D01*
X04419Y-10954D01*
X04419Y-10953D01*
X04420Y-10954D01*
X04519Y-10954D01*
X04670Y-10954D01*
X04679Y-10954D01*
X04769Y-10954D01*
X04929Y-10954D01*
X05021Y-10916D01*
X05091Y-10846D01*
X05129Y-10755D01*
X05129Y-10656D01*
X05129Y-10156D01*
X05091Y-10064D01*
X05021Y-09994D01*
X04930Y-09956D01*
X04831Y-09956D01*
X04680Y-09956D01*
X04671Y-09956D01*
X04581Y-09956D01*
X04421Y-09956D01*
X04420Y-09956D01*
X04419Y-09956D01*
X04392Y-09955D01*
X04369Y-09977D01*
X04329Y-09994D01*
X04290Y-10033D01*
X04251Y-09994D01*
X04210Y-09977D01*
X04188Y-09955D01*
X04161Y-09956D01*
X04160Y-09956D01*
X04159Y-09956D01*
X04132Y-09955D01*
X04109Y-09977D01*
X04069Y-09994D01*
X04035Y-10028D01*
X04001Y-09994D01*
X03942Y-09969D01*
X03928Y-09955D01*
X03901Y-09956D01*
X03811Y-09956D01*
X03810Y-09956D01*
X03810Y-09902D01*
X03835Y-09913D01*
X04004Y-09913D01*
X04160Y-09849D01*
X04280Y-09729D01*
X04345Y-09573D01*
X04345Y-09404D01*
X04281Y-09248D01*
X04161Y-09128D01*
X04005Y-09063D01*
X03896Y-09063D01*
X03980Y-08979D01*
X04045Y-08823D01*
X04045Y-08723D01*
X04234Y-08534D01*
X04234Y-08533D01*
X04235Y-08533D01*
X04297Y-08440D01*
X04298Y-08439D01*
X04319Y-08329D01*
X04320Y-08328D01*
X04320Y-08154D01*
X04419Y-08154D01*
X04419Y-08153D01*
X04420Y-08154D01*
X04519Y-08154D01*
X04670Y-08154D01*
X04679Y-08154D01*
X04769Y-08154D01*
X04929Y-08154D01*
X05021Y-08116D01*
X05091Y-08046D01*
X05129Y-07955D01*
X05129Y-07856D01*
X05129Y-07356D01*
X05092Y-07266D01*
X05130Y-07229D01*
X05195Y-07073D01*
X05195Y-06904D01*
X05143Y-06778D01*
X05731Y-06778D01*
X05537Y-06971D01*
X05400Y-07301D01*
X05400Y-07659D01*
X05537Y-07989D01*
X05789Y-08243D01*
X06119Y-08380D01*
X06477Y-08380D01*
X06807Y-08243D01*
X07061Y-07991D01*
X07198Y-07661D01*
X07198Y-07303D01*
X07061Y-06973D01*
X06809Y-06719D01*
X06695Y-06672D01*
X08678Y-04690D01*
X10075Y-04690D01*
X10075Y-05274D01*
X10113Y-05366D01*
X10183Y-05436D01*
X10274Y-05474D01*
X10373Y-05474D01*
X11773Y-05474D01*
X11865Y-05436D01*
X11935Y-05366D01*
X11973Y-05275D01*
X11973Y-05176D01*
X11973Y-03526D01*
X11935Y-03434D01*
X11879Y-03378D01*
X11900Y-03378D01*
X11980Y-03458D01*
X11980Y-06617D01*
X11884Y-06713D01*
X11786Y-06713D01*
X11630Y-06777D01*
X11535Y-06872D01*
X11535Y-06432D01*
X11497Y-06340D01*
X11427Y-06270D01*
X11336Y-06232D01*
X11237Y-06232D01*
X10887Y-06232D01*
X10795Y-06270D01*
X10736Y-06329D01*
X10677Y-06270D01*
X10586Y-06232D01*
X10487Y-06232D01*
X10137Y-06232D01*
X10045Y-06270D01*
X09975Y-06340D01*
X09937Y-06431D01*
X09937Y-06466D01*
X09917Y-06466D01*
X09902Y-06429D01*
X09832Y-06359D01*
X09741Y-06321D01*
X09642Y-06321D01*
X09282Y-06321D01*
X09190Y-06359D01*
X09161Y-06388D01*
X09132Y-06359D01*
X09040Y-06321D01*
X08923Y-06320D01*
X08861Y-06382D01*
X08861Y-06650D01*
X08861Y-06700D01*
X08861Y-06800D01*
X08861Y-06850D01*
X08861Y-07118D01*
X08883Y-07140D01*
X08840Y-07159D01*
X08770Y-07229D01*
X08761Y-07250D01*
X08761Y-07118D01*
X08761Y-06800D01*
X08761Y-06700D01*
X08761Y-06382D01*
X08699Y-06320D01*
X08582Y-06321D01*
X08490Y-06359D01*
X08420Y-06429D01*
X08382Y-06520D01*
X08382Y-06619D01*
X08381Y-06638D01*
X08443Y-06700D01*
X08761Y-06700D01*
X08761Y-06800D01*
X08443Y-06800D01*
X08381Y-06862D01*
X08382Y-06881D01*
X08382Y-06980D01*
X08420Y-07071D01*
X08490Y-07141D01*
X08582Y-07179D01*
X08699Y-07180D01*
X08761Y-07118D01*
X08761Y-07250D01*
X08732Y-07320D01*
X08732Y-07419D01*
X08732Y-07779D01*
X08770Y-07871D01*
X08791Y-07892D01*
X08745Y-08003D01*
X08745Y-08172D01*
X08792Y-08288D01*
X08711Y-08288D01*
X08711Y-08300D01*
X08699Y-08288D01*
X08582Y-08289D01*
X08490Y-08327D01*
X08420Y-08397D01*
X08382Y-08488D01*
X08382Y-08587D01*
X08381Y-08606D01*
X08443Y-08668D01*
X08711Y-08668D01*
X08761Y-08668D01*
X08861Y-08668D01*
X08861Y-08768D01*
X08861Y-08818D01*
X08861Y-09086D01*
X08883Y-09108D01*
X08840Y-09127D01*
X08770Y-09197D01*
X08761Y-09218D01*
X08761Y-09086D01*
X08761Y-08768D01*
X08443Y-08768D01*
X08381Y-08830D01*
X08382Y-08849D01*
X08382Y-08948D01*
X08420Y-09039D01*
X08490Y-09109D01*
X08582Y-09147D01*
X08699Y-09148D01*
X08761Y-09086D01*
X08761Y-09218D01*
X08732Y-09288D01*
X08732Y-09387D01*
X08732Y-09747D01*
X08770Y-09839D01*
X08840Y-09909D01*
X08931Y-09947D01*
X09030Y-09947D01*
X09390Y-09947D01*
X09482Y-09909D01*
X09552Y-09839D01*
X09564Y-09808D01*
X10340Y-09808D01*
X10451Y-09786D01*
X10545Y-09723D01*
X10925Y-09343D01*
X10988Y-09249D01*
X11010Y-09138D01*
X11010Y-08461D01*
X11335Y-08461D01*
X11427Y-08423D01*
X11497Y-08353D01*
X11535Y-08262D01*
X11535Y-08163D01*
X11535Y-07613D01*
X11497Y-07521D01*
X11427Y-07451D01*
X11401Y-07440D01*
X11401Y-07252D01*
X11427Y-07242D01*
X11445Y-07223D01*
X11509Y-07378D01*
X11629Y-07498D01*
X11785Y-07563D01*
X11954Y-07563D01*
X12110Y-07499D01*
X12230Y-07379D01*
X12272Y-07278D01*
X12272Y-14635D01*
M02*
