G04 (created by PCBNEW-RS274X (2012-jan-04)-stable) date Sun 06 Jan 2013 10:44:23 PM EET*
G01*
G70*
G90*
%MOIN*%
G04 Gerber Fmt 3.4, Leading zero omitted, Abs format*
%FSLAX34Y34*%
G04 APERTURE LIST*
%ADD10C,0.006000*%
%ADD11C,0.080000*%
%ADD12C,0.126300*%
%ADD13C,0.149900*%
%ADD14R,0.036000X0.070000*%
%ADD15R,0.056000X0.056000*%
%ADD16R,0.055000X0.075000*%
%ADD17R,0.075000X0.055000*%
%ADD18C,0.138100*%
%ADD19R,0.067200X0.067200*%
%ADD20R,0.160000X0.185000*%
G04 APERTURE END LIST*
G54D10*
G54D11*
X06799Y-12324D03*
X05799Y-12324D03*
X05799Y-13111D03*
X06799Y-13111D03*
G54D12*
X08661Y-14174D03*
X03937Y-14174D03*
G54D13*
X06299Y-07481D03*
G54D14*
X04800Y-07655D03*
X04550Y-07655D03*
X04290Y-07655D03*
X04030Y-07655D03*
X03780Y-07655D03*
X03520Y-07655D03*
X03260Y-07655D03*
X03010Y-07655D03*
X02750Y-07655D03*
X02500Y-07655D03*
X02240Y-07655D03*
X01980Y-07655D03*
X01730Y-07655D03*
X01470Y-07655D03*
X01470Y-10455D03*
X01730Y-10455D03*
X01970Y-10455D03*
X02240Y-10455D03*
X02500Y-10455D03*
X02750Y-10455D03*
X03010Y-10455D03*
X03260Y-10455D03*
X03520Y-10455D03*
X03780Y-10455D03*
X04030Y-10455D03*
X04290Y-10455D03*
X04550Y-10455D03*
X04800Y-10455D03*
G54D15*
X08811Y-06750D03*
X09511Y-06750D03*
X09161Y-07550D03*
X08811Y-08718D03*
X09511Y-08718D03*
X09161Y-09518D03*
G54D16*
X02775Y-11418D03*
X03525Y-11418D03*
X06675Y-04725D03*
X05925Y-04725D03*
X11111Y-07937D03*
X10361Y-07937D03*
X01987Y-03544D03*
X02737Y-03544D03*
X11111Y-06756D03*
X10361Y-06756D03*
X01987Y-05512D03*
X02737Y-05512D03*
X07068Y-11024D03*
X06318Y-11024D03*
G54D17*
X00591Y-09233D03*
X00591Y-08483D03*
G54D16*
X06318Y-10237D03*
X07068Y-10237D03*
X02775Y-12205D03*
X03525Y-12205D03*
G54D11*
X06099Y-03106D03*
X07099Y-03106D03*
X05099Y-03106D03*
X07599Y-02106D03*
X06599Y-02106D03*
X05599Y-02106D03*
G54D18*
X03699Y-01306D03*
X08999Y-01306D03*
G54D19*
X01181Y-04350D03*
X01181Y-03524D03*
X01181Y-06319D03*
X01181Y-05493D03*
G54D20*
X11024Y-04400D03*
X11024Y-01900D03*
M02*
