M48
INCH,TZ
T1C0.025
T2C0.032
T3C0.091
T4C0.118
%
G90
G05
T1
X2120Y-11438
X3270Y-5488
X3620Y-8738
X3920Y-9488
X4020Y-5488
X4670Y-6088
X4770Y-6988
X9170Y-8088
X9670Y-8088
X11870Y-7138
T2
X3699Y-1306
X5099Y-3106
X5599Y-2106
X5799Y-12324
X5799Y-13111
X6099Y-3106
X6599Y-2106
X6799Y-12324
X6799Y-13111
X7099Y-3106
X7599Y-2106
X8999Y-1306
T3
X3937Y-14174
X8661Y-14174
T4
X6299Y-7481
T0
M30
